<svg xmlns="http://www.w3.org/2000/svg" width="483.124" height="252.068"><clipPath id="a" fill="none"><path d="M0 0h595.276v841.89H0z" stroke="#000" shape-rendering="crispEdges"/></clipPath><g clip-path="url(#a)" transform="translate(-56.263 -294.91)" fill="none"><path d="M56.377 377.693a8.912 8.912 0 0 1 2.595-6.282 8.804 8.804 0 0 1 6.243-2.612l30.84 8.8 30.873-8.914a8.735 8.735 0 0 1 6.233 2.589 8.84 8.84 0 0 1 2.572 6.272l-8.859 31.069 8.745 31.037a8.912 8.912 0 0 1-2.595 6.282 8.797 8.797 0 0 1-6.242 2.612l-30.84-8.801-30.874 8.915a8.732 8.732 0 0 1-6.233-2.588 8.845 8.845 0 0 1-2.572-6.273l8.86-31.07-8.746-31.036z" fill="#4ad2f0"/><path d="M117.915 302.233a11.416 11.416 0 0 1 5.99-6.323 11.271 11.271 0 0 1 8.666-.257l32.85 24.689 41.024 3.513a11.19 11.19 0 0 1 6.267 5.959 11.334 11.334 0 0 1 .197 8.685l-24.863 33.098-3.79 41.142a11.42 11.42 0 0 1-5.99 6.323 11.275 11.275 0 0 1-8.667.258l-32.85-24.69-41.024-3.513a11.187 11.187 0 0 1-6.267-5.96 11.334 11.334 0 0 1-.196-8.684l24.863-33.097 3.79-41.143z" fill="#d0f400"/><path d="M120.015 468.083a5.196 5.196 0 0 1 .1-3.962 5.13 5.13 0 0 1 2.853-2.726l18.628-1.653 14.944-11.305a5.09 5.09 0 0 1 3.934.107 5.158 5.158 0 0 1 2.711 2.877l1.67 18.765 11.247 15.068a5.196 5.196 0 0 1-.1 3.962 5.13 5.13 0 0 1-2.852 2.727l-18.628 1.653-14.944 11.305a5.094 5.094 0 0 1-3.934-.107 5.161 5.161 0 0 1-2.71-2.877l-1.67-18.764-11.249-15.07z" fill="#3394ce"/><path d="M89.763 375.805l6.292 1.795 30.873-8.915a8.735 8.735 0 0 1 6.233 2.589 8.84 8.84 0 0 1 2.572 6.272l-4.73 16.59-35.278-3.021a11.187 11.187 0 0 1-6.267-5.96 11.334 11.334 0 0 1-.196-8.684c0 .002.501-.666.501-.666z" fill="#6bb340"/><path d="M236.426 414.083l-.085 18.03H259.7a7.357 7.357 0 0 1 0 14.715h-23.358v91.975a8.174 8.174 0 1 1-16.348 0v-91.975H205.83a7.357 7.357 0 0 1 0-14.714h13.962v-16.11c0-19.822 12.463-29.833 31.265-29.833h8.644a7.357 7.357 0 0 1 0 14.714h-8.644c-11.105 0-14.63 3.987-14.63 13.198zM409.275 414.083l-.085 18.03h23.358a7.357 7.357 0 0 1 0 14.715H409.19v91.975a8.174 8.174 0 1 1-16.348 0v-91.975h-14.165a7.357 7.357 0 0 1 0-14.714h13.962v-16.11c0-19.822 12.463-29.833 31.265-29.833h8.644a7.357 7.357 0 0 1 0 14.714h-8.644c-11.103 0-14.629 3.987-14.629 13.198zM456.845 480.029h66.916c-2.767-22.476-15.458-32.213-31.21-32.213-19.652 0-32.446 12.228-35.706 32.213zm35.995 51.454c17.733 0 25.347-9.427 28.23-13.146 0 0 3.534-4.626 5.498-5.205a7.438 7.438 0 0 1 9.153 9.41c-.468 1.793-1.4 4.06-2.95 6.524-5.313 8.034-17.115 17.804-40.222 17.804-31.579 0-51.81-20.318-51.81-55.31 0-30.331 15.946-59.032 51.81-59.032 27.191 0 44.701 19.157 46.838 50.12 0 11.646-4.845 12.095-17.925 12.095h-65.328c1.495 33.113 24.433 36.74 36.706 36.74zM276.183 465.262c0-17.94 15.942-32.083 41.568-32.083l.614.002c22.041-.007 33.241 9.637 38.283 17.567 1.47 2.43 2.356 4.67 2.8 6.44 1.025 3.318-.347 7.025-3.41 8.719a6.789 6.789 0 0 1-5.277.57c-1.864-.571-5.219-5.138-5.219-5.138-1.978-2.653-6.306-8.254-14.907-11.153-3.725-1.182-7.918-1.815-12.884-1.815-15.942 0-25.426 6.519-25.426 16.487 0 7.143 5.046 12.913 13.723 14.729l27.44 5.85c14.932 3.229 28.048 10.949 28.048 28.655 0 18.78-16.343 32.765-42.978 32.765l-1.164.01c-23.107 0-34.909-9.77-40.222-17.803-1.549-2.463-2.483-4.731-2.95-6.524a7.438 7.438 0 0 1 9.154-9.41c1.964.579 5.5 5.205 5.5 5.205 2.097 2.706 6.702 8.436 15.887 11.354 4.051 1.286 8.664 1.955 13.795 1.955 17.756 0 26.635-7.081 26.635-16.95 0-6.757-5.046-12.51-13.319-14.325l-28.249-5.85c-14.933-3.028-27.442-11.99-27.442-29.257z" fill="#202d79"/></g></svg>